<svg xmlns="http://www.w3.org/2000/svg" x="0px" y="0px" width="100" height="100" viewBox="0,0,256,256">
    <defs><radialGradient cx="31.998" cy="31.5" r="30.776" gradientUnits="userSpaceOnUse" id="color-1_fQDK2sCN4Eh1_gr1"><stop offset="0" stop-color="#ffffff"></stop><stop offset="0.219" stop-color="#ffffff"></stop><stop offset="0.644" stop-color="#ffffff"></stop><stop offset="1" stop-color="#ffffff"></stop></radialGradient><linearGradient x1="29.401" y1="61.936" x2="29.401" y2="-40.734" gradientUnits="userSpaceOnUse" id="color-2_fQDK2sCN4Eh1_gr2"><stop offset="0" stop-color="#ff5840"></stop><stop offset="0.007" stop-color="#ff5840"></stop><stop offset="0.989" stop-color="#fa528c"></stop><stop offset="1" stop-color="#fa528c"></stop></linearGradient><linearGradient x1="12.148" y1="65.128" x2="12.148" y2="18.188" gradientUnits="userSpaceOnUse" id="color-3_fQDK2sCN4Eh1_gr3"><stop offset="0" stop-color="#feaa53"></stop><stop offset="0.612" stop-color="#ffcd49"></stop><stop offset="1" stop-color="#ffde44"></stop></linearGradient><linearGradient x1="29.76" y1="33.851" x2="29.76" y2="72.939" gradientUnits="userSpaceOnUse" id="color-4_fQDK2sCN4Eh1_gr4"><stop offset="0" stop-color="#42d778"></stop><stop offset="0.428" stop-color="#3dca76"></stop><stop offset="1" stop-color="#34b171"></stop></linearGradient><linearGradient x1="46" y1="62.362" x2="46" y2="30.407" gradientUnits="userSpaceOnUse" id="color-5_fQDK2sCN4Eh1_gr5"><stop offset="0" stop-color="#155cde"></stop><stop offset="0.278" stop-color="#1f7fe5"></stop><stop offset="0.569" stop-color="#279ceb"></stop><stop offset="0.82" stop-color="#2cafef"></stop><stop offset="1" stop-color="#2eb5f0"></stop></linearGradient></defs><g transform=""><g fill="#ffffff" fill-rule="nonzero" stroke="none" stroke-width="1" stroke-linecap="butt" stroke-linejoin="miter" stroke-miterlimit="10" stroke-dasharray="" stroke-dashoffset="0" font-family="none" font-weight="none" font-size="none" text-anchor="none" style="mix-blend-mode: normal"><path d="M0,256v-256h256v256z" id="bgRectangle"></path></g><g fill="none" fill-rule="nonzero" stroke="none" stroke-width="1" stroke-linecap="butt" stroke-linejoin="miter" stroke-miterlimit="10" stroke-dasharray="" stroke-dashoffset="0" font-family="none" font-weight="none" font-size="none" text-anchor="none" style="mix-blend-mode: normal"><g transform="scale(4,4)"><path d="M63.97,30.06c-0.29,2.86 -2.86,4.94 -5.73,4.94h-5.24c-1.22,0 -2.18,1.08 -1.97,2.34c0.16,0.98 1.08,1.66 2.08,1.66h3.39c2.63,0 4.75,2.28 4.48,4.96c-0.24,2.34 -2.34,4.04 -4.69,4.04h-5.29c-1.22,0 -2.18,1.08 -1.97,2.34c0.16,0.98 1.08,1.66 2.08,1.66h3.39c1.24,0 2.37,0.5 3.18,1.32c0.82,0.81 1.32,1.94 1.32,3.18c0,2.49 -2.01,4.5 -4.5,4.5h-44c-1.52,0 -2.9,-0.62 -3.89,-1.61c-0.99,-0.99 -1.61,-2.37 -1.61,-3.89c0,-3.04 2.46,-5.5 5.5,-5.5h3.5c1.22,0 2.18,-1.08 1.97,-2.34c-0.16,-0.98 -1.08,-1.66 -2.08,-1.66h-8.39c-2.63,0 -4.75,-2.28 -4.48,-4.96c0.24,-2.34 2.34,-4.04 4.69,-4.04h7.29c1.71,0 3.09,-1.43 3,-3.16c-0.09,-1.62 -1.55,-2.84 -3.17,-2.84h-8.33c-2.63,0 -4.75,-2.28 -4.48,-4.96c0.24,-2.34 2.35,-4.04 4.69,-4.04h9.79c1.24,0 2.37,-0.5 3.18,-1.32c0.82,-0.81 1.32,-1.94 1.32,-3.18c0,-2.49 -2.01,-4.5 -4.5,-4.5h-6c-1.52,0 -2.9,-0.62 -3.89,-1.61c-0.99,-0.99 -1.61,-2.37 -1.61,-3.89c0,-3.04 2.46,-5.5 5.5,-5.5h48c3.21,0 5.8,2.79 5.47,6.06c-0.29,2.86 -1.86,4.94 -4.73,4.94h-1.74c-3.04,0 -5.5,2.46 -5.5,5.5c0,1.52 0.62,2.9 1.61,3.89c0.99,0.99 2.37,1.61 3.89,1.61h3c3.21,0 5.8,2.79 5.47,6.06z" fill="url(#color-1_fQDK2sCN4Eh1_gr1)"></path><path d="M47.46,15.5l-1.37,1.48c-1.34,1.44 -3.5,1.67 -5.15,0.6c-2.71,-1.75 -6.43,-3.13 -11,-2.37c-4.94,0.83 -9.17,3.85 -11.64,7.97l-8.03,-6.08c4.72,-7.28 12.93,-12.1 22.23,-12.1c5,0 9.94,1.56 14.27,4.46c2.04,1.37 2.36,4.25 0.69,6.04z" fill="url(#color-2_fQDK2sCN4Eh1_gr2)"></path><path d="M16.01,30.91c-0.09,2.47 0.37,4.83 1.27,6.96l-8.21,6.05c-1.35,-2.51 -2.3,-5.28 -2.75,-8.22c-1.06,-6.88 0.54,-13.38 3.95,-18.6l8.03,6.08c-1.37,2.29 -2.2,4.93 -2.29,7.73z" fill="url(#color-3_fQDK2sCN4Eh1_gr3)"></path><path d="M50.45,51.28c-4.55,4.07 -10.61,6.57 -17.36,6.71c-10.18,0.21 -19.43,-5.46 -24.02,-14.07l8.21,-6.05c2.5,5.94 8.39,10.13 15.22,10.13c3.94,0 7.52,-1.28 10.33,-3.44z" fill="url(#color-4_fQDK2sCN4Eh1_gr4)"></path><path d="M59,31.97c0.01,7.73 -3.26,14.58 -8.55,19.31l-7.62,-6.72c2.1,-1.61 3.77,-3.71 4.84,-6.15c0.29,-0.66 -0.2,-1.41 -0.92,-1.41h-9.75c-2.21,0 -4,-1.79 -4,-4v-2c0,-2.21 1.79,-4 4,-4h17c2.75,0 5,2.22 5,4.97z" fill="url(#color-5_fQDK2sCN4Eh1_gr5)"></path></g></g></g>
    </svg>